<svg id="_0557_bank_note" xmlns="http://www.w3.org/2000/svg" xmlns:xlink="http://www.w3.org/1999/xlink" viewBox="0 0 500 500" data-imageid="money-50" imageName="Money" class="illustrations_image" style="width: 166px;"><defs><style>.cls-1_money-50{fill:url(#linear-gradient);}.cls-1_money-50,.cls-2_money-50,.cls-3_money-50,.cls-4_money-50,.cls-5_money-50,.cls-6_money-50,.cls-7_money-50,.cls-8_money-50,.cls-9_money-50,.cls-10_money-50,.cls-11_money-50,.cls-12_money-50,.cls-13_money-50{stroke-width:0px;}.cls-2_money-50{isolation:isolate;opacity:.18;}.cls-2_money-50,.cls-13_money-50{fill:#68e1fd;}.cls-3_money-50{fill:url(#linear-gradient-4-money-50);}.cls-4_money-50{fill:url(#linear-gradient-2-money-50);}.cls-5_money-50{fill:url(#linear-gradient-3-money-50);}.cls-6_money-50{fill:url(#linear-gradient-8-money-50);}.cls-7_money-50{fill:url(#linear-gradient-7-money-50);}.cls-8_money-50{fill:url(#linear-gradient-5-money-50);}.cls-9_money-50{fill:url(#linear-gradient-6-money-50);}.cls-10_money-50{fill:#473f47;}.cls-11_money-50{fill:#c14834;}.cls-12_money-50{fill:#fcbdba;}</style><linearGradient id="linear-gradient-money-50" x1="-1003.89" y1="3339.33" x2="-1013.54" y2="2442.7" gradientTransform="translate(1289 3343.65) scale(1 -1)" gradientUnits="userSpaceOnUse"><stop offset="0" stop-color="#231f20"/><stop offset=".13" stop-color="#231f20" stop-opacity=".69"/><stop offset=".25" stop-color="#231f20" stop-opacity=".32"/><stop offset="1" stop-color="#231f20" stop-opacity="0"/></linearGradient><linearGradient id="linear-gradient-2-money-50" x1="-1072.75" y1="3213.65" x2="-750.8" y2="2455.46" gradientTransform="translate(1268.05 3321.84) scale(1 -1)" xlink:href="#linear-gradient-money-50"/><linearGradient id="linear-gradient-3-money-50" x1="-1007.31" y1="3029.72" x2="-813.33" y2="3361.33" xlink:href="#linear-gradient-money-50"/><linearGradient id="linear-gradient-4-money-50" x1="-1195.46" y1="3062.92" x2="-1194.35" y2="3061.7" gradientTransform="translate(1268.05 3321.84) scale(1 -1)" gradientUnits="userSpaceOnUse"><stop offset="0" stop-color="#000"/><stop offset=".13" stop-color="#000" stop-opacity=".69"/><stop offset=".25" stop-color="#000" stop-opacity=".32"/><stop offset="1" stop-color="#000" stop-opacity="0"/></linearGradient><linearGradient id="linear-gradient-5-money-50" x1="-1133.04" y1="3288.84" x2="-902.45" y2="2601.88" xlink:href="#linear-gradient-4-money-50"/><linearGradient id="linear-gradient-6-money-50" x1="-1188.68" y1="3050.99" x2="-1137.02" y2="2993.29" gradientTransform="translate(1268.05 3321.84) scale(1 -1)" xlink:href="#linear-gradient-money-50"/><linearGradient id="linear-gradient-7-money-50" x1="-1169.16" y1="3098.14" x2="-1186.51" y2="3060.71" gradientTransform="translate(1268.05 3321.84) scale(1 -1)" xlink:href="#linear-gradient-money-50"/><linearGradient id="linear-gradient-8-money-50" x1="-1203.78" y1="3116.2" x2="-1172.6" y2="3026.04" gradientTransform="translate(1268.05 3321.84) scale(1 -1)" xlink:href="#linear-gradient-money-50"/></defs><path id="background_money-50" class="cls-2_money-50 targetColor" d="M488.2,358.64c-4.21,20.77-13.47,40.39-29.31,54.15-25.77,22.41-63.38,24.99-97.22,20.37s-66.97-15.31-101.17-15.27c-45.09,0-84.65,28.36-127.32,27.79-39.37-.52-78.14-22.85-100.53-54.78-1.34-1.9-2.64-3.85-3.89-5.83-.38-.58-.73-1.18-1.09-1.77-.96-1.6-1.87-3.18-2.74-4.79-.4-.73-.79-1.48-1.17-2.22s-.83-1.61-1.23-2.43c0-.08-.08-.13-.1-.19-.42-.82-.79-1.64-1.18-2.48-3.58-7.71-6.46-15.73-8.58-23.96-7.82-30.19-6.28-62.06,4.43-91.35.96-2.6,2-5.19,3.13-7.79,5.52-12.66,13.05-24.51,23.44-33.53,20.98-18.17,50.29-22.61,75.51-34.32,12.15-5.79,23.57-12.98,34.02-21.45,36.74-29.12,65.73-70.01,107.14-92.81,17.72-9.62,37.26-15.42,57.37-17.02,33.74-2.78,67.5,5.01,96.61,22.29,67.1,40.15,54.03,110.55,65.96,178.46,4.98,28.35,11.48,56.76,10.58,85.51-.22,7.87-1.11,15.7-2.65,23.42Z" style="fill: rgb(134, 69, 255);"/><g id="banknote_money-50"><rect class="cls-13_money-50 targetColor" x="130.36" y="219.66" width="303.34" height="147.77" style="fill: rgb(134, 69, 255);"/><rect class="cls-1_money-50" x="148.05" y="238.11" width="267.9" height="110.38"/><circle class="cls-13_money-50 targetColor" cx="275.09" cy="292.15" r="42.23" style="fill: rgb(134, 69, 255);"/><path class="cls-4_money-50" d="M270.58,324.58l.31-7.79c-4.14-.19-8.15-1.53-11.57-3.89l2.03-5.05c3.18,2.25,6.94,3.54,10.83,3.73,5.48.21,9.24-2.77,9.42-7.13s-2.71-6.93-8.27-9.48c-7.7-3.38-12.37-7.09-12.11-13.73.25-6.35,4.95-10.98,12.05-11.85l.3-7.79,4.75.18-.3,7.41c3.49.18,6.87,1.24,9.84,3.08l-2.08,5.06c-2.84-1.86-6.15-2.9-9.54-3-5.89-.23-8.24,3.21-8.36,6.26-.16,3.97,2.6,6.08,9.09,9.09,7.79,3.52,11.58,7.66,11.31,14.46-.23,6.05-4.67,11.55-12.59,12.54l-.32,7.96-4.78-.05Z"/><circle class="cls-13_money-50 targetColor" cx="191.5" cy="293.55" r="10.8" style="fill: rgb(134, 69, 255);"/><circle class="cls-13_money-50 targetColor" cx="358.66" cy="293.55" r="10.8" style="fill: rgb(134, 69, 255);"/><circle class="cls-13_money-50 targetColor" cx="415.95" cy="238.11" r="17.71" style="fill: rgb(134, 69, 255);"/><circle class="cls-13_money-50 targetColor" cx="415.98" cy="348.45" r="17.71" style="fill: rgb(134, 69, 255);"/><circle class="cls-13_money-50 targetColor" cx="148.04" cy="238.11" r="17.71" style="fill: rgb(134, 69, 255);"/><circle class="cls-13_money-50 targetColor" cx="148.06" cy="348.45" r="17.71" style="fill: rgb(134, 69, 255);"/><polygon class="cls-13_money-50 targetColor" points="290.78 219.66 352.77 154.14 331.83 134.83 402.3 136.02 405.49 195.68 388.59 181.11 349.55 219.66 290.78 219.66" style="fill: rgb(134, 69, 255);"/><polygon class="cls-5_money-50" points="290.78 219.66 352.77 154.14 331.83 134.83 402.3 136.02 405.49 195.68 388.59 181.11 349.55 219.66 290.78 219.66"/></g><g id="magnifying_glass_money-50"><path class="cls-11_money-50" d="M72.87,260.06c.04-.43.19-.83.44-1.18-.17.39-.32.78-.44,1.18Z"/><path class="cls-3_money-50" d="M72.87,260.06c.04-.43.19-.83.44-1.18-.17.39-.32.78-.44,1.18Z"/><path class="cls-8_money-50" d="M290.8,219.66s-30.25,94.43-119.92,62.99l-15.84-8.05-24.67,22v-76.94h160.43Z"/><path class="cls-13_money-50 targetColor" d="M117.89,195.68c0-46.6,37.78-84.38,84.38-84.38s84.38,37.78,84.38,84.38-37.78,84.38-84.38,84.38c-46.57-.08-84.3-37.81-84.38-84.38ZM127.9,195.68c0,41.1,33.31,74.41,74.41,74.41s74.41-33.31,74.41-74.41-33.31-74.41-74.41-74.41c-41.08.04-74.37,33.33-74.41,74.41Z" style="fill: rgb(134, 69, 255);"/><path class="cls-13_money-50 targetColor" d="M87.98,320.74c2.3-.01,4.5-.95,6.1-2.6l55.31-56.15c3.32-3.37,3.28-8.8-.09-12.12-3.37-3.32-8.8-3.28-12.12.09l-55.31,56.17c-3.33,3.38-3.29,8.81.09,12.13,1.61,1.58,3.77,2.47,6.03,2.47Z" style="fill: rgb(134, 69, 255);"/><path class="cls-10_money-50" d="M61.48,338.57c3.98,3.91,10.36,3.86,14.28-.1l65.13-66.09c.36-.37.69-.76.99-1.18.17-.22.32-.45.47-.69.95-1.6.79-3.64-.42-5.06-1.26-1.5-2.64-2.91-4.12-4.19-1.7-1.51-3.55-2.86-5.52-4.01-1.65-.98-3.73-.8-5.19.44h0c-.2.15-.39.32-.56.51l-65.12,66.08c-3.94,3.94-3.93,10.33.01,14.26.01.01.03.03.04.04Z"/></g><g id="character_money-50"><path class="cls-13_money-50 targetColor" d="M82.19,393.97c.87.02,1.74.11,2.6.29.86.19,1.6.73,2.05,1.48.6,1.48.05,3.17-1.3,4.02-1.34.74-2.86,1.07-4.39.96-.96.05-1.93-.11-2.82-.48-1.09-.55-2.01-1.69-3.22-1.54-.53.12-1.03.32-1.49.6-1.84.88-4.05.19-5.06-1.58-.24-.55-.38-1.15-.4-1.75-.16-1.93.48-4.17,2.18-4.98,2.04-.97,3.28.17,4.91,1.09,2.15,1.12,4.52,1.77,6.95,1.91Z" style="fill: rgb(134, 69, 255);"/><path class="cls-12_money-50" d="M82.55,383.45l-6.49,10.24s-2.87,1.08-4.58,0l-1.71-1.03,4.37-15.16,8.41,5.95Z"/><path class="cls-10_money-50" d="M102.47,308.6s-2.66,29.35-3.89,36.35c-2.73,14.99-14.97,38.63-14.97,38.63,0,0-7.7,1.78-9.55-2.3l-1.05-2.32s13.29-31.35,5.98-57.63c-.2-.77-.34-1.56-.43-2.35-.4-3.03-.52-6.1-.36-9.15l24.28-1.23Z"/><path class="cls-13_money-50 targetColor" d="M105.42,397.78c.86-.14,1.73-.2,2.6-.18.89.04,1.73.44,2.32,1.1.85,1.39.58,3.2-.64,4.28-1.2.98-2.66,1.59-4.21,1.75-.96.22-1.95.22-2.91,0-1.19-.35-2.32-1.3-3.49-.97-.51.21-.99.51-1.4.88-1.68,1.24-4.03.95-5.35-.68-.34-.51-.59-1.09-.73-1.69-.49-1.91-.27-4.26,1.3-5.39,1.86-1.3,3.31-.42,5.1.21,2.39.75,4.91.98,7.4.68Z" style="fill: rgb(134, 69, 255);"/><path class="cls-12_money-50" d="M103.86,387.14l-4.66,11.42s-2.67,1.61-4.58.9l-1.9-.71,1.64-15.97,9.5,4.36Z"/><path class="cls-12_money-50" d="M138.5,270.9c.31-.42.71-.87,1.22-.8.3,0,.58.27.88.19.18-.07.34-.19.45-.35.71-.76,1.5-1.44,2.36-2.03.53-.46,1.16-.78,1.84-.93.98-.07,1.9.44,2.38,1.3.44.9.54,1.93.3,2.91-.26.95-.64,1.86-1.14,2.71-.33.63-.73,1.21-1.19,1.74-1.49,1.56-3.82,1.82-5.72,2.78-.2.12-.43.2-.66.22-.42-.06-.78-.32-.97-.7-.74-1.05-1.19-2.29-1.3-3.57.14-1.29.68-2.51,1.56-3.47Z"/><path class="cls-12_money-50" d="M119.93,258.52c.23-.06.47-.04.68.06.12.1.22.2.31.32.4.44,1.06.45,1.6.69.69.36,1.19,1,1.38,1.75.19.76.27,1.53.25,2.31.03.41,0,.83-.13,1.22-.13.4-.48.67-.9.7-.32-.05-.63-.18-.9-.38-.54-.3-1.17-.4-1.78-.29-.79.25-1.54.6-2.23,1.04-.72.43-1.62.43-2.34,0-.32-.28-.57-.64-.73-1.04-.65-1.4-1.38-3.01-.08-4.17,1.38-1.19,3.07-1.96,4.87-2.23Z"/><path class="cls-10_money-50" d="M110.35,308.64s2.6,29.86,2.6,37.08c0,15.5-7.98,41.39-7.98,41.39,0,0-7.39,3.17-9.97-.58l-1.52-2.14s7.65-33.75-4.41-58.74c-.33-.74-.61-1.49-.83-2.27-.95-2.96-1.63-6-2.03-9.09l24.15-5.63Z"/><path class="cls-12_money-50" d="M106.73,232.44c.99,1.98,1.62,4.12,1.87,6.32.23,2.25-.76,4.45-2.6,5.76-.54.26-1.04.58-1.51.96-1.58,1.64.25,4.6-.69,6.71-.78,1.48-2.23,2.49-3.89,2.7-1.33.13-2.67-.09-3.89-.64-.78-.22-1.41-.78-1.71-1.53-.06-.56.01-1.13.22-1.65,1.16-4.45-1.82-9.09-1.3-13.63.48-3.89,4.76-11.35,9.53-10.66,2.51.32,3.17,3.79,3.97,5.65Z"/><path class="cls-13_money-50 targetColor" d="M139.69,279.6s-18.17,16.19-19.41,16.19-7-7.23-8.81-9.49l-.52-.68-.65,23.02c-2.24,1.31-4.57,2.47-6.97,3.45-3.16,1.38-6.52,2.28-9.94,2.69-1.08.1-2.17.1-3.26,0-8.81-.8-12.68-3.75-12.68-3.75l4.54-45.44c.58-6.56,4.86-12.22,11.01-14.58,1.13-.53,2.39-.71,3.62-.51,2.51.45,5.08.45,7.59,0,5.06-.68,10.23,6.24,10.23,6.24l6.74,22.07,15.8-5.62c2.16,1.35,3.24,3.91,2.71,6.4Z" style="fill: rgb(134, 69, 255);"/><path class="cls-9_money-50" d="M111.47,286.3l-.52-.68-.65,23.02c-2.24,1.31-4.57,2.47-6.97,3.45-3.16,1.38-6.52,2.28-9.94,2.69.2-2.71,1.36-5.25,3.28-7.17,1.22-1.21,2.74-2.14,3.89-3.44,1.42-1.81,2.39-3.93,2.84-6.18,2.21-8.65,1.99-17.69,1.77-26.6,1.3,3.34,2.6,6.71,3.89,10,.73,1.67,1.8,3.19,2.4,4.91Z"/><path class="cls-11_money-50" d="M104.29,230.19c-1.03.95-2.05,1.54-2.49,2.95-.29,1.05-.4,2.14-.31,3.22-.18,0-.32-.14-.4-.32-.03-.18-.11-.35-.25-.48-.23-.11-.51-.02-.63.21,0,.02-.02.04-.02.06-.09.26-.09.54,0,.8.43,1.73,1,3.4,1.3,5.19,0,.19,0,.42.1.61.09.57.06,1.16-.09,1.71-.21.53-.53,1.01-.93,1.41-.24.33-.55.61-.9.83-.33.16-.68.27-1.04.32-1.17.14-2.35.11-3.52-.08-.98-.1-1.95-.35-2.86-.74-.57-.28-1.11-.6-1.62-.96-1.24-.84-2.41-1.8-3.48-2.86-2.6-2.43-3.45-7.28-3.4-10.68v-1.08h0c.08-1.07.33-2.11.73-3.1,1.06-2.25,2.85-4.08,5.08-5.19,4.54-2.45,11.31-3.7,15.58.23.22.19.41.42.57.66,1.34,2,.18,5.79-1.42,7.27Z"/><path class="cls-7_money-50" d="M101.51,244.09c-.21.53-.53,1.01-.93,1.41-.24.33-.55.61-.9.83-.33.16-.68.27-1.04.32-1.17.14-2.35.11-3.52-.08-.98-.1-1.95-.35-2.86-.74-.57-.28-1.11-.6-1.62-.96-1.24-.84-2.41-1.8-3.48-2.86-2.6-2.43-3.45-7.28-3.4-10.68v-1.08h0c.97-.75,2.15-1.18,3-.29.53.81.9,1.71,1.09,2.66.41,1.12.93,2.19,1.53,3.22.57,1.04,1.33,1.96,2.25,2.71,1.62,1.08,3.48,1.76,5.41,1.96.15-.83.07-1.68-.21-2.47.9,1.06,1.95,1.98,3.13,2.71.52.34,1.08.65,1.6,1.04,0,.19,0,.42.1.61.07.56.01,1.12-.16,1.66Z"/><path class="cls-13_money-50 targetColor" d="M85.25,225.61c-.66-.29-1.35-.47-2.06-.55-.27-.07-.56,0-.77.18-1.14,1.04-1.88,2.44-2.09,3.97-.19.64-.19,1.32,0,1.96.17.41.44.77.78,1.05,1.43,1.29,3.56,1.4,5.11.27,1.93-1.67,1.35-5.78-.97-6.89Z" style="fill: rgb(134, 69, 255);"/><path class="cls-11_money-50" d="M81.18,251.17c.08-1.39-.42-2.75-1.38-3.76.87,3.42-.45,7.03-3.32,9.09-.73.49-1.54.88-2.23,1.43-.35.28-.66.6-.92.96.58-1.17.97-2.43,1.13-3.73.04-.47-.03-.95-.19-1.39-.09-.22-.22-.42-.38-.6-.24-.26-.5-.51-.77-.74-2.1-2.02-3.98-4.27-5.61-6.69-2.08-2.5-3.67-5.37-4.7-8.45-.68-2.82-.57-5.77.31-8.53.76-2.86,2.4-5.4,4.69-7.27,2.68-1.78,6.02-2.26,9.09-1.3,0,0,7.85,1.52,6.65,7.4-.31,1.48-.66,2.87-.92,4.19-.83,3.97-1.08,7.43,1.93,11.35,1.95,2.45-.45,6.82-3.38,8.04Z"/><path class="cls-6_money-50" d="M81.18,251.17c.08-1.39-.42-2.75-1.38-3.76.87,3.42-.45,7.03-3.32,9.09-.73.49-1.54.88-2.23,1.43-.35.28-.66.6-.92.96.58-1.17.97-2.43,1.13-3.73.04-.47-.03-.95-.19-1.39-.09-.22-.22-.42-.38-.6.96-1.65,1.51-3.51,1.61-5.41.12-3.89-2.19-7.7-1.82-11.68,1.25,1.98,2.94,3.65,4.95,4.87-.84-2.14,1.41-10.15,4.01-9.26-.83,3.97-1.08,7.43,1.93,11.35,1.93,2.56-.47,6.92-3.39,8.14Z"/></g></svg>