<svg width="185" height="185" viewBox="0 0 185 185" fill="none" xmlns="http://www.w3.org/2000/svg">
<path d="M167.065 143.015C162.11 138.598 157.771 133.533 154.167 127.958C150.231 120.263 147.873 111.859 147.229 103.24V77.8542C147.263 64.3164 142.352 51.2321 133.42 41.0596C124.487 30.8872 112.147 24.3268 98.718 22.6112V15.982C98.718 14.1625 97.9952 12.4175 96.7087 11.131C95.4221 9.84437 93.6771 9.12158 91.8576 9.12158C90.0381 9.12158 88.2931 9.84437 87.0066 11.131C85.72 12.4175 84.9972 14.1625 84.9972 15.982V22.7139C71.6888 24.5533 59.4979 31.1533 50.6824 41.2916C41.8669 51.4298 37.0243 64.4193 37.0514 77.8542V103.24C36.4077 111.859 34.0491 120.263 30.1139 127.958C26.5726 133.52 22.3038 138.584 17.4208 143.015C16.8726 143.497 16.4333 144.09 16.1321 144.754C15.8308 145.419 15.6745 146.14 15.6736 146.869V153.858C15.6736 155.221 16.215 156.528 17.1787 157.492C18.1425 158.456 19.4496 158.997 20.8125 158.997H163.674C165.037 158.997 166.344 158.456 167.307 157.492C168.271 156.528 168.812 155.221 168.812 153.858V146.869C168.812 146.14 168.655 145.419 168.354 144.754C168.053 144.09 167.613 143.497 167.065 143.015ZM26.3625 148.72C31.1437 144.101 35.3535 138.925 38.9014 133.303C43.8584 124.009 46.7507 113.755 47.3805 103.24V77.8542C47.1767 71.8316 48.1869 65.8296 50.351 60.2056C52.5151 54.5815 55.7888 49.4505 59.9772 45.118C64.1656 40.7855 69.183 37.3401 74.7306 34.987C80.2783 32.634 86.2427 31.4213 92.2687 31.4213C98.2948 31.4213 104.259 32.634 109.807 34.987C115.354 37.3401 120.372 40.7855 124.56 45.118C128.749 49.4505 132.022 54.5815 134.186 60.2056C136.35 65.8296 137.361 71.8316 137.157 77.8542V103.24C137.787 113.755 140.679 124.009 145.636 133.303C149.184 138.925 153.394 144.101 158.175 148.72H26.3625Z" fill="black"/>
<path d="M92.5 176.161C95.7372 176.086 98.8437 174.869 101.27 172.725C103.696 170.581 105.286 167.648 105.758 164.444H78.7278C79.2133 167.735 80.8775 170.737 83.4109 172.892C85.9442 175.047 89.1742 176.209 92.5 176.161V176.161Z" fill="black"/>
</svg>
